<svg width="25" height="24" viewBox="0 0 25 24" fill="none" xmlns="http://www.w3.org/2000/svg">
<path d="M21 17C21 15.2051 19.5449 13.75 17.75 13.75C15.9551 13.75 14.5 15.2051 14.5 17C14.5 18.7949 15.9551 20.25 17.75 20.25C19.5449 20.25 21 18.7949 21 17Z" stroke="#121331" stroke-width="1.5" stroke-linecap="round" stroke-linejoin="round"/>
<path d="M19.75 3.75H15.75C15.1977 3.75 14.75 4.19772 14.75 4.75V8.75C14.75 9.30228 15.1977 9.75 15.75 9.75H19.75C20.3023 9.75 20.75 9.30228 20.75 8.75V4.75C20.75 4.19772 20.3023 3.75 19.75 3.75Z" stroke="#121331" stroke-width="1.5" stroke-linecap="round" stroke-linejoin="round"/>
<path d="M4.27002 9.75L7.75 3.75L11.27 9.75H4.27002Z" stroke="#121331" stroke-width="1.5" stroke-linecap="round" stroke-linejoin="round"/>
<path d="M4.75 14.25L10.5 20" stroke="#121331" stroke-width="1.5" stroke-linecap="round" stroke-linejoin="round"/>
<path d="M10.5 14.25L4.75 20" stroke="#121331" stroke-width="1.5" stroke-linecap="round" stroke-linejoin="round"/>
</svg>
